# xmcd
#
# Track frame offsets: 
#        150
#        21910
#        42093
#        60866
#        84187
#        101211
#        119604
#        132675
#        151512
#        169213
#        182600
#        212847
#
# Disc length: 3313 seconds
#
# Revision: 2
# Processed by: cddbd v1.5.2PL0 Copyright (c) Steve Scherf et al.
# Submitted via: ExactAudioCopyFreeDBPlugin 1.0
#
DISCID=9a0cef0c
DTITLE=Jane - Shine On
DYEAR=2003
DGENRE=Progressive Rock
TTITLE0=I Believe
TTITLE1=Heartbeat
TTITLE2=Know It All
TTITLE3=Another Day Another Way
TTITLE4=Honestly
TTITLE5=Freedom In his Word
TTITLE6=Sign My Name
TTITLE7=How To Do It Right
TTITLE8=Sinking Sinking
TTITLE9=Still Want More
TTITLE10=Something New
TTITLE11=Better For You Better For Me
EXTD=
EXTT0=
EXTT1=
EXTT2=
EXTT3=
EXTT4=
EXTT5=
EXTT6=
EXTT7=
EXTT8=
EXTT9=
EXTT10=
EXTT11=
PLAYORDER=
